# xmcd
#
# Track frame offsets:
#	150
#	10099
#	28250
#	48405
#	59505
#	72913
#	82884
#	94789
#	107385
#	129230
#	144308
#	167783
#	176802
#	185520
#	199418
#
# Disc length: 3051 seconds
#
# Revision: 1
# Processed by: cddbd v1.5PL3 Copyright (c) Steve Scherf et al.
# Submitted via: audiograbber 1.80.04
#
DISCID=cb0be90f
DTITLE=Paul Esch - Uplifting Music
DYEAR=1900
DGENRE=Gospel
TTITLE0=I Choose to Be God's Love
TTITLE1=We Clothe Ourselves In Light
TTITLE2=Arise Into the Light
TTITLE3=Light I Am
TTITLE4=I Say YES to My Good
TTITLE5=The Transmutation Song
TTITLE6=God and Love and Light Will Set Me Free
TTITLE7=Be God's Love
TTITLE8=I Am the Beloved
TTITLE9=I Am Peace, Joy, Love, Life and Light
TTITLE10=Every Day Is Heaven
TTITLE11=We Love You With All of Our Hearts
TTITLE12=Let There Be More Light
TTITLE13=The Ascension
TTITLE14=The Temple of God
EXTD=
EXTT0=
EXTT1=
EXTT2=
EXTT3=
EXTT4=
EXTT5=
EXTT6=
EXTT7=
EXTT8=
EXTT9=
EXTT10=
EXTT11=
EXTT12=
EXTT13=
EXTT14=
PLAYORDER=
